<svg width="275" height="197" viewBox="0 0 275 197" fill="none" xmlns="http://www.w3.org/2000/svg">
<ellipse cx="112.5" cy="191" rx="65.5" ry="6" fill="#8A8895" fill-opacity="0.7"/>
<path d="M124.04 148.344C123.404 136.794 124.743 125.01 124.609 113.393C125.011 109.376 124.341 105.258 122.634 101.475C122.533 101.241 122.399 101.006 122.198 100.806C121.529 100.236 120.424 100.538 119.554 100.839C111.184 103.685 101.342 103.015 93.7087 98.9978C92.2022 100.906 91.767 103.216 91.3987 105.459C90.7961 109.075 90.1266 112.724 89.9927 116.373V116.406C89.9592 117.176 89.9257 117.98 89.9592 118.75C90.0596 123.303 91.1309 127.789 91.9679 132.241C92.5035 135.154 92.9722 138.1 93.0391 141.079C93.0726 143.49 92.6709 145.733 93.307 148.076C94.9139 153.935 94.9139 160.296 95.6169 166.255C96.3535 172.649 97.0565 179.043 97.6591 185.438C97.6926 185.705 97.6926 185.94 97.726 186.208C98.1278 186.308 104.087 187.413 104.087 186.141C104.556 173.72 105.058 161.3 105.526 148.846C105.727 143.624 105.259 125.947 106.866 120.959C107.535 121.026 108.171 121.06 108.841 121.127C112.49 137.564 116.775 166.389 120.424 182.826C120.759 184.266 121.127 185.839 122.299 186.777C123.471 187.714 125.613 187.446 125.948 186.007C124.843 173.486 124.709 160.932 124.04 148.344Z" fill="#537082"/>
<path d="M113.43 37.298C113.43 33.4145 109.714 30.2341 105.094 30.2341C100.507 30.2341 96.7578 33.381 96.7578 37.298C96.7578 37.934 96.8582 38.5701 97.0591 39.1727C97.0591 39.3401 97.0591 39.474 97.0591 39.6414C97.0256 41.0475 97.0926 42.4535 97.3939 43.8596C97.9965 46.5713 99.503 49.0487 102.416 50.5887C103.386 51.0908 104.491 51.4926 105.629 51.4926C107.169 51.4926 108.609 50.7561 109.68 49.8522C113.229 46.8726 113.564 42.3866 113.296 38.1684C113.396 37.8671 113.43 37.5993 113.43 37.298Z" fill="#D0C5C2"/>
<path d="M104.285 186.274C102.444 186.141 100.602 186.208 98.7944 186.475C97.3884 187.413 95.8819 188.149 94.2414 188.752C93.7728 188.919 93.2706 189.087 92.9358 189.421C92.601 189.756 92.4336 190.292 92.7684 190.66C93.0362 190.961 93.5384 190.995 94.0071 190.995C97.3884 191.028 100.77 190.761 104.117 190.225C104.318 190.191 104.519 190.158 104.687 190.024C104.787 189.924 104.854 189.79 104.887 189.656C105.222 188.517 105.021 187.279 104.285 186.274Z" fill="#3D322B"/>
<path d="M125.612 186.542C123.971 186.576 122.331 186.777 120.724 187.145C119.586 188.082 118.313 188.886 116.941 189.522C116.539 189.723 116.104 189.89 115.836 190.225C115.568 190.56 115.501 191.062 115.836 191.33C116.137 191.564 116.573 191.564 116.974 191.531C119.987 191.296 123 190.828 125.913 190.091C126.08 190.058 126.281 189.991 126.382 189.857C126.482 189.756 126.515 189.622 126.515 189.489C126.683 188.451 126.348 187.346 125.612 186.542Z" fill="#3D322B"/>
<path d="M124.945 108.405C124.912 100.437 124.878 92.5032 124.845 84.5355C124.812 77.8399 123.305 70.7091 122.301 64.114C121.765 60.4649 121.095 59.1927 119.455 55.9454C119.221 55.4767 119.187 55.1754 116.978 54.4724C116.509 54.305 115.371 53.6689 114.802 53.7693C111.956 54.238 109.043 53.1667 106.164 53.6689C103.151 54.1711 98.0627 52.6646 95.7192 54.7067C92.5388 57.4854 92.3045 64.1475 91.8023 68.4661C91.1328 74.3247 89.4924 80.2503 89.2245 86.1424C88.9567 91.298 88.8228 96.4871 88.7559 101.676C88.7224 104.388 87.718 113.762 90.1619 115.569C91.568 116.641 95.3845 117.042 99.2679 117.176C99.4018 117.176 99.5357 117.176 99.7031 117.176C99.7366 117.176 99.7701 117.176 99.8035 117.176C101.41 117.21 102.984 117.21 104.423 117.176C106.566 117.143 108.34 117.042 109.311 116.942C113.864 116.54 118.35 115.603 122.836 114.565C123.64 114.398 124.51 114.13 124.945 113.427C125.28 112.958 124.945 109.041 124.945 108.405Z" fill="#D3E4EA"/>
<path d="M115.496 38.3359C115.396 37.1977 115.228 36.0929 114.927 34.9881C114.927 34.9881 114.927 34.9881 114.927 34.9547C114.726 33.8499 114.559 32.7116 114.391 31.6069C114.358 31.3056 114.157 31.0377 113.822 30.9708C112.583 30.7364 111.345 30.5356 110.073 30.4017C109.236 29.9665 108.164 29.7321 107.227 29.8325C106.557 29.7321 105.854 29.7656 105.285 29.8325C104.951 29.866 104.549 29.9665 104.181 30.0669C103.544 30.0669 102.875 30.0669 102.239 30.1338C100.833 28.8282 97.6189 29.1965 96.6815 30.8034C96.4806 31.1382 96.3802 31.4395 96.3467 31.7408C95.0746 32.0421 93.8359 32.8121 93.4676 34.1177C93.2668 34.7538 93.3672 35.4568 93.7689 35.9925C94.0033 36.2938 94.338 36.4612 94.6728 36.6285C94.8067 36.7959 94.9741 36.9633 95.1415 37.0972C95.2754 37.3316 95.5098 37.5659 95.8111 37.7333C95.945 37.8003 96.0454 37.8338 96.1793 37.8003C96.2798 37.8672 96.3467 37.9007 96.4137 37.9342C96.9828 38.269 97.5184 37.6329 97.3845 37.0972C97.4515 36.9299 97.485 36.7625 97.4515 36.5951C97.6858 36.3272 97.9202 35.9925 98.121 35.7581C98.3889 35.6242 98.6567 35.4903 98.9245 35.3564C98.958 35.3564 98.9915 35.3229 98.9915 35.3229C99.0249 35.3229 99.0584 35.2894 99.0919 35.2894C99.4936 35.1555 99.8954 35.122 100.297 35.1555C100.331 35.1555 100.364 35.189 100.398 35.189C100.699 35.2894 101.034 35.3564 101.335 35.4233C101.536 35.4903 101.737 35.5907 101.938 35.6577C102.138 35.7581 102.339 35.7246 102.54 35.6242C104.415 35.9255 106.357 35.9255 108.265 35.8251C109.135 36.5951 110.709 36.3942 111.579 35.6577C111.613 35.9925 111.512 36.3272 111.345 36.6285C111.244 36.8294 111.244 37.1307 111.378 37.3316C111.78 37.8003 111.947 38.3024 111.914 38.9385C111.88 39.4407 112.416 39.6416 112.818 39.5746C112.952 39.5411 112.918 39.9429 112.885 40.3781C112.851 40.2776 112.717 40.2107 112.583 40.2442C111.713 40.512 110.843 40.7798 109.972 41.0141C109.872 40.7128 109.704 40.4785 109.37 40.3446C108.901 40.1437 108.265 40.2442 107.763 40.2442C106.725 40.2442 105.721 40.2442 104.683 40.2442C104.549 40.2442 104.482 40.3111 104.415 40.4115C104.281 40.4115 104.114 40.4115 103.98 40.4115C103.812 40.4115 103.678 40.512 103.678 40.6794C103.678 41.0141 103.678 41.3824 103.678 41.7172C103.478 41.7172 103.31 41.6837 103.143 41.6837C102.741 41.6837 102.339 41.6837 101.938 41.6837C101.938 41.4828 101.904 41.282 101.904 41.1146C101.904 40.9472 101.938 40.8133 101.938 40.6459C101.938 40.512 101.804 40.3781 101.636 40.3781H101.569C101.536 40.3781 101.536 40.3781 101.502 40.3781C100.598 40.3446 99.661 40.2776 98.7571 40.2442C98.121 40.2107 97.2506 40.0098 96.648 40.2107C95.7776 40.512 95.9115 41.5163 96.0119 42.3533C95.945 42.7215 95.9115 43.0563 96.0789 43.2906C96.2128 43.458 96.4472 43.4915 96.648 43.525C97.3176 43.6254 98.121 43.525 98.8241 43.5585C99.4936 43.5585 100.967 43.8598 101.536 43.3911C101.804 43.1567 101.904 42.755 101.904 42.3198H101.938C101.938 42.4202 102.004 42.4872 102.138 42.5207C102.674 42.6211 103.176 42.6546 103.712 42.6211C103.846 43.0228 104.114 43.3911 104.683 43.5919C105.386 43.8263 106.357 43.6589 107.127 43.6924C107.562 43.7259 107.964 43.6924 108.332 43.5585C108.633 43.525 108.934 43.4915 109.269 43.4246C109.336 43.4246 109.403 43.3576 109.437 43.2906C109.537 43.2572 109.604 43.2237 109.637 43.1233C109.771 42.7215 109.972 42.1189 109.972 41.5833C110.876 41.3154 111.78 41.0476 112.684 40.8133C112.751 40.8133 112.784 40.7798 112.818 40.7128C112.784 40.9807 112.717 41.2485 112.717 41.282C112.55 41.9181 112.249 42.4872 111.914 43.0228C111.78 43.2572 111.847 43.6924 112.081 43.8598C112.249 43.9602 112.416 44.0606 112.55 44.1276C112.349 45.1319 111.813 46.0693 111.311 46.9732C110.742 47.9775 109.236 48.848 108.332 49.6514C107.428 50.4549 106.189 51.024 104.917 50.9236C104.75 50.9236 104.582 50.8901 104.448 50.8232C104.147 50.6558 104.013 50.321 103.913 50.0197C103.812 49.7184 103.712 49.3836 103.411 49.2162C103.109 49.0488 102.574 49.2162 102.641 49.5175C102.674 49.7184 102.908 49.8858 102.908 50.0867C102.908 50.321 102.574 50.4549 102.306 50.3879C102.038 50.321 101.871 50.1201 101.703 49.9527C101.301 49.5175 100.9 49.0823 100.498 48.6136C100.331 48.4128 100.13 48.2788 99.8954 48.3793C100.23 49.0823 100.866 49.7519 101.335 50.3879C101.737 50.9236 102.138 51.4258 102.708 51.794C103.411 52.2292 104.281 52.3297 105.118 52.3297C106.122 52.3631 107.194 52.2292 108.03 51.6936C108.633 51.3253 110.039 50.1536 110.407 49.5845C111.646 47.7097 112.416 46.4041 113.086 44.3285C113.086 44.295 113.086 44.295 113.119 44.2615C114.19 44.295 114.86 42.9559 115.128 41.8176C115.362 40.8802 115.463 39.8759 115.262 38.9385C115.396 38.8381 115.496 38.6372 115.496 38.3359ZM101.168 42.5207C101.134 42.5541 101.134 42.6211 101.101 42.6546C100.23 42.755 99.3262 42.8554 98.4558 42.822C98.0206 42.7885 97.6858 42.7215 97.4515 42.5207C97.4515 42.0185 97.4515 41.4828 97.4515 40.9807C98.0206 40.9807 98.5897 40.9807 99.1589 40.9807C99.8284 41.0141 100.498 41.0141 101.201 41.0476C101.234 41.3154 101.268 41.5833 101.268 41.8846C101.234 42.0854 101.201 42.2863 101.168 42.5207ZM108.867 41.985C108.767 42.4537 108.6 42.822 108.131 43.0228C107.361 43.1233 106.591 43.1233 105.821 43.0563C105.185 42.9893 104.951 42.9893 104.884 42.3867C104.884 42.2863 104.884 42.1859 104.85 42.0854C104.884 42.0185 104.884 41.9181 104.85 41.8511C104.85 41.5833 104.85 41.3489 104.884 41.0811C106.156 41.0811 107.394 41.0811 108.667 41.0811C108.767 41.1481 108.834 41.215 108.867 41.3154C108.867 41.4828 108.867 41.6837 108.867 41.8511C108.901 41.9181 108.901 41.9515 108.867 41.985Z" fill="#333333"/>
<path d="M126.213 92.9384C126.146 88.9545 126.012 84.9372 125.778 80.9533C125.477 75.7308 125.309 70.3743 124.472 65.2187C123.937 61.9714 122.799 58.5232 120.053 56.6149C119.384 55.0749 118.379 53.7358 116.873 53.0328C116.404 52.2963 115.534 52.1958 114.797 52.5306C114.228 52.2293 113.492 52.1624 112.889 52.698C110.445 54.7736 109.106 57.6862 108.236 60.7327C107.298 64.047 106.763 67.5957 106.629 71.0104C106.394 76.5008 108.135 81.9911 111.282 86.4437C111.316 87.0798 111.349 87.7159 111.349 88.3854C111.65 100.27 108.169 111.719 104.654 122.968C104.252 124.24 105.725 125.278 106.83 124.91C107.231 124.776 107.667 124.675 108.068 124.541C108.202 124.575 108.37 124.608 108.537 124.642C108.872 124.675 109.207 124.675 109.575 124.675C110.144 125.077 110.914 125.144 111.483 124.675C114.295 124.575 117.074 124.106 119.752 123.269L122.029 123.002C122.296 122.968 122.531 122.901 122.765 122.767C123.569 122.868 124.472 122.466 124.707 121.495C127.05 111.987 127.251 102.446 126.213 92.9384Z" fill="#DF0000"/>
<path d="M96.947 53.0327C92.8627 58.1213 90.787 64.2143 89.7827 70.5416C87.2049 80.6519 87.0375 91.3983 87.4393 101.877C87.4393 101.944 87.4393 102.011 87.4393 102.078L87.7406 110.682C87.841 113.326 87.7406 116.071 88.3097 118.683C89.1801 122.633 93.3983 126.45 97.4826 123.872C98.0852 123.47 98.2861 122.767 98.1187 122.097C93.867 105.191 93.164 87.4479 95.9761 70.2738C96.7796 65.4195 97.8509 60.6321 99.2235 55.9118C99.3239 55.6105 99.2904 55.3426 99.2235 55.1083C100.429 53.5683 98.1857 51.4927 96.947 53.0327Z" fill="#DF0000"/>
<path d="M96.3844 66.792C95.5475 65.4194 94.5766 64.2142 93.6057 62.942C92.7353 61.8372 92.6349 60.2972 91.4297 59.4268C90.258 58.5564 88.7514 58.5564 87.3454 58.6903C87.0776 58.7238 86.8432 58.7907 86.6423 58.9581C86.5084 59.0251 86.3745 59.092 86.2741 59.1925C85.8389 59.2929 85.4371 59.4268 85.0019 59.5942C84.1315 59.929 83.8637 60.7994 84.2989 61.6029C86.1737 65.3524 88.1488 69.1019 91.1953 72.0815C91.5971 72.4832 92.1327 72.4832 92.5679 72.3158C92.8023 72.4162 93.1036 72.4497 93.4049 72.4497C94.2083 72.4497 95.0118 72.3158 95.7818 72.1819C96.5853 72.048 97.3218 71.9141 97.7235 71.1106C98.4265 69.7045 97.054 67.9302 96.3844 66.792Z" fill="#909294"/>
<path d="M98.5595 69.6041C96.1156 66.089 93.7387 62.5403 91.2948 59.0251C90.96 58.5564 90.4578 58.5564 90.0896 58.8243C88.8174 58.7573 87.5453 58.7573 86.2731 58.7908C85.6035 58.8243 84.8335 58.7908 84.4988 59.4604C84.3983 59.6612 84.5657 59.8621 84.7666 59.8956C86.3735 59.929 87.9805 59.929 89.5539 59.9625C89.6209 60.0964 89.7548 60.0964 89.8887 60.0629C92.2991 63.5781 94.7095 67.0598 97.0864 70.575C97.7225 71.4789 99.1955 70.5415 98.5595 69.6041Z" fill="#606060"/>
<path d="M111.821 82.125C109.913 80.8194 107.971 79.6141 105.996 78.4759C104.523 76.869 102.816 75.4964 100.908 74.3916C100.305 74.0233 99.7358 74.1573 99.3341 74.492C99.2337 74.492 99.1332 74.5255 99.0663 74.559C98.765 74.3581 98.4637 74.1907 98.1958 74.1238C97.995 74.2242 97.8276 74.2912 97.6602 74.4251C97.6267 74.4251 97.5263 74.5255 97.4259 74.5925C97.3254 74.6594 97.158 74.7933 97.158 74.7933C97.0911 74.8603 96.9906 74.9272 96.9237 74.9942C96.8902 75.6972 97.3254 76.7016 97.7606 77.505L98.9324 79.6476C98.9658 79.7481 99.0328 79.8485 99.0663 79.9154C99.0663 79.9489 99.0998 79.9824 99.0998 79.9824L100.975 83.3972C101.108 83.4306 101.209 83.4976 101.343 83.598C101.745 84.2006 102.18 84.8032 102.615 85.4058C103.284 87.3141 104.758 88.8875 106.632 89.9588C109.043 91.3314 113.395 93.3066 115.169 90.0592C116.876 86.9458 114.299 83.8324 111.821 82.125Z" fill="#DF0000"/>
<path d="M119.689 61.2681C119.321 60.5985 118.45 60.3307 117.781 60.565C117.245 60.5316 116.643 60.6655 116.007 60.9333C112.324 62.5402 111.487 67.1937 110.717 70.6754C109.612 75.6301 108.876 80.6852 109.646 85.7404C109.746 86.343 110.081 86.7112 110.516 86.8786C110.483 87.4478 110.483 87.9834 110.483 88.5525C110.516 89.4899 111.186 89.8916 111.889 89.8582C112.157 89.9921 112.391 90.0255 112.625 90.059C112.927 90.2934 113.295 90.4273 113.73 90.3938C118.283 89.8582 117.948 83.9661 118.685 80.5848C119.153 78.3753 119.823 76.2327 120.626 74.1236C121.396 72.1484 122.166 70.1062 122.3 67.9636C122.401 65.8211 121.53 62.6407 119.689 61.2681Z" fill="#DF0000"/>
<path d="M97.0221 75.4293C97.156 75.3958 97.29 75.3623 97.4573 75.2619C98.0934 74.9271 98.3278 74.291 98.4282 73.6215C98.5956 72.6841 98.4952 71.6797 98.4282 70.7424C98.0265 70.1063 97.5913 69.5372 96.9552 69.1354C96.8547 69.2693 96.7208 69.4033 96.6204 69.5372L96.9552 70.4076C96.4195 69.805 95.7835 69.3028 95.1139 68.8676C94.4443 68.4659 93.5404 68.1311 93.0383 68.5998C92.5361 69.0685 92.8374 69.9389 93.2057 70.575C94.1765 72.3828 95.5156 73.9562 97.0221 75.4293Z" fill="#D0C5C2"/>
<path d="M247.063 127.655C242.108 124.173 236.618 121.595 231.228 118.884C226.541 116.507 222.289 113.628 217.435 111.318C206.354 106.095 195.206 100.437 184.459 94.9135C183.723 94.5452 182.986 94.2774 182.25 94.0765C183.756 94.4782 184.861 71.9142 184.727 69.9055C184.225 61.9043 182.451 54.037 179.438 46.6049C176.358 39.0054 172.039 31.9081 166.682 25.6812C164.004 22.5678 160.958 20.057 157.978 17.3453C154.731 14.3992 152.187 11.0179 148.002 9.2771C133.64 3.38499 119.78 -1.10104 104.045 0.238074C88.9134 1.51023 74.2501 7.33538 62.5328 17.0774C51.8869 25.8821 45.8274 36.3942 40.5044 48.8814C40.0022 50.0531 39.5335 51.1914 39.0314 52.3631C33.2397 65.9216 34.7462 83.9662 39.2992 97.7926C44.12 112.422 53.4603 125.412 65.8806 134.551C72.5762 139.506 80.0083 145.298 88.6121 146.268C96.7807 147.172 104.347 149.415 112.716 149.114C128.886 148.545 144.721 142.653 157.275 132.442C161.259 129.228 164.875 125.579 168.089 121.629C168.691 122.131 169.361 122.566 170.064 122.934C172.34 122.934 177.228 126.45 179.337 127.554C182.886 129.429 186.234 131.739 189.715 133.714C198.386 138.636 207.592 142.184 216.364 146.704C220.381 148.779 224.398 150.822 228.416 152.897C229.554 153.466 230.726 154.002 231.83 154.671C235.982 157.082 240.434 157.45 245.288 157.517C246.862 157.551 248.502 157.484 249.942 156.814C251.247 156.178 252.285 155.073 253.256 154.002C255.533 151.458 257.776 148.645 258.345 145.264C258.947 141.615 257.441 137.866 255.064 134.986C252.754 132.141 250.042 129.764 247.063 127.655ZM163.402 101.81C147.935 131.94 110.975 143.825 80.8452 128.358C50.7151 112.891 38.8305 75.9315 54.2973 45.8014C69.764 15.6714 106.724 3.78673 136.854 19.2535C166.984 34.7203 178.868 71.6798 163.402 101.81Z" fill="#1D1D1B"/>
<path d="M171.739 14.7005C168.726 13.5957 167.018 18.2826 170.065 19.3874C184.059 24.476 193.868 38.7041 193.432 53.6353C193.332 56.8157 198.32 57.2843 198.387 54.0705C198.889 36.8963 187.908 20.5591 171.739 14.7005Z" fill="#1D1D1B"/>
<path d="M180.615 2.44761C177.736 1.04154 176.062 5.72844 178.941 7.13451C196.216 15.5709 207.732 34.2516 207.632 53.4344C207.598 56.6148 212.586 57.0835 212.586 53.8696C212.72 32.2429 200.032 11.9218 180.615 2.44761Z" fill="#1D1D1B"/>
<path d="M12.9517 78.6098C10.8761 89.8584 15.7304 101.643 24.9703 108.372C27.5481 110.246 30.4272 106.196 27.8494 104.287C19.9486 98.5292 16.1656 88.5862 17.9399 79.0116C18.5091 75.8646 13.5209 75.4629 12.9517 78.6098Z" fill="#1D1D1B"/>
<path d="M0.0292807 86.544C-0.372454 95.6834 3.37707 104.22 10.2066 110.246C12.617 112.355 15.4626 108.271 13.0856 106.162C7.66223 101.341 4.71618 94.1769 5.01748 86.9792C5.11792 83.7988 0.163192 83.3301 0.0292807 86.544Z" fill="#1D1D1B"/>
<path d="M206.552 105.727C206.384 105.727 206.217 105.727 206.05 105.76C202.267 106.597 201.028 114.967 199.555 117.846C196.944 122.934 194.232 128.023 191.52 133.078C190.215 135.522 191.554 135.656 193.462 136.593C194.935 137.296 196.375 138.033 197.848 138.736C202.099 140.812 206.351 142.887 210.603 144.963C220.311 149.683 230.02 154.437 239.695 159.157C244.583 161.534 249.671 164.815 254.827 166.556C258.677 167.828 263.397 166.489 266.912 164.313C273.642 160.095 276.956 148.578 271.8 141.95C269.992 139.64 267.448 138.066 264.937 136.56C251.814 128.726 238.389 121.361 224.73 114.531C221.416 112.858 218.068 111.251 214.72 109.644C212.946 108.807 208.795 105.794 206.552 105.727Z" fill="#DF0000"/>
</svg>
